<svg width="34" height="34" viewBox="0 0 34 34" fill="none" xmlns="http://www.w3.org/2000/svg">
<rect x="0.5" y="0.5" width="33" height="33" stroke="#E5E5E5"/>
<path fill-rule="evenodd" clip-rule="evenodd" d="M13.0291 11.02C9.74935 11.0602 6.87946 14.1571 7.0039 17.5083C6.94924 20.2203 8.77578 22.8084 11.2874 23.6521C13.6541 24.4653 16.5632 23.857 18.1379 21.7842C19.2878 20.3321 19.5488 18.3959 19.4243 16.5867C17.6226 16.5702 15.8209 16.5733 14.0213 16.5763C13.7968 16.5767 13.5722 16.5771 13.3478 16.5774C13.3448 17.3144 13.3478 18.0486 13.3508 18.7856L13.3508 18.7898C14.0219 18.8088 14.6932 18.8125 15.3644 18.8163C15.9067 18.8193 16.449 18.8223 16.9912 18.8334C16.6849 19.907 15.9869 20.9061 14.9282 21.2939C12.8835 22.2155 10.2746 21.0115 9.63122 18.8176C8.85434 16.7171 10.1257 14.1818 12.225 13.5704C13.5266 13.102 14.8675 13.6294 15.9811 14.3215C16.5451 13.7814 17.0731 13.2046 17.592 12.621C16.327 11.5381 14.7007 10.8742 13.0291 11.02ZM25.1735 14.7154H23.3686C23.3623 15.333 23.3563 15.9537 23.3532 16.5707C22.7468 16.5769 22.1431 16.58 21.5393 16.583L21.5391 16.583V18.4324C21.6213 18.4329 21.7035 18.4333 21.7859 18.4338C22.3081 18.4366 22.8319 18.4395 23.3532 18.4451C23.3565 18.7683 23.3581 19.0914 23.3597 19.4149C23.3611 19.7097 23.3626 20.0048 23.3653 20.3006C23.5652 20.3006 23.7656 20.3003 23.9661 20.3C24.368 20.2993 24.7709 20.2986 25.1735 20.3006L25.1742 20.1541C25.1772 19.5827 25.1803 19.0138 25.1858 18.442L27 18.4327V16.5833L26.991 16.5833C26.3902 16.5802 25.7864 16.5771 25.1858 16.571C25.1842 16.2624 25.1819 15.9531 25.1796 15.6437C25.1774 15.334 25.1751 15.0243 25.1735 14.7154Z" fill="#666666"/>
</svg>
