<svg width="34" height="34" viewBox="0 0 34 34" fill="none" xmlns="http://www.w3.org/2000/svg">
<rect x="0.5" y="0.5" width="33" height="33" stroke="#E5E5E5"/>
<path fill-rule="evenodd" clip-rule="evenodd" d="M13.625 8H20.375C23.4811 8 26 10.5189 26 13.625V20.375C26 23.4811 23.4811 26 20.375 26H13.625C10.5189 26 8 23.4811 8 20.375V13.625C8 10.5189 10.5189 8 13.625 8ZM20.375 24.3125C22.5463 24.3125 24.3125 22.5463 24.3125 20.375V13.625C24.3125 11.4537 22.5463 9.6875 20.375 9.6875H13.625C11.4537 9.6875 9.6875 11.4537 9.6875 13.625V20.375C9.6875 22.5463 11.4537 24.3125 13.625 24.3125H20.375ZM12.5 17C12.5 14.5149 14.5149 12.5 17 12.5C19.4851 12.5 21.5 14.5149 21.5 17C21.5 19.4851 19.4851 21.5 17 21.5C14.5149 21.5 12.5 19.4851 12.5 17ZM14.1875 17C14.1875 18.5503 15.4497 19.8125 17 19.8125C18.5503 19.8125 19.8125 18.5503 19.8125 17C19.8125 15.4486 18.5503 14.1875 17 14.1875C15.4497 14.1875 14.1875 15.4486 14.1875 17ZM21.875 13.25C22.4963 13.25 23 12.7463 23 12.125C23 11.5037 22.4963 11 21.875 11C21.2537 11 20.75 11.5037 20.75 12.125C20.75 12.7463 21.2537 13.25 21.875 13.25Z" fill="#666666"/>
</svg>
