<svg width="34" height="34" viewBox="0 0 34 34" fill="none" xmlns="http://www.w3.org/2000/svg">
<rect x="0.5" y="0.5" width="33" height="33" stroke="#E5E5E5"/>
<path d="M21.4437 10.6396C20.3928 9.58231 18.9384 9 17.3484 9C14.9198 9 13.426 10.0433 12.6006 10.9185C11.5833 11.997 11 13.4291 11 14.8476C11 16.6286 11.7109 17.9956 12.9013 18.5042C12.9813 18.5385 13.0617 18.5558 13.1405 18.5558C13.3916 18.5558 13.5906 18.3836 13.6596 18.1074C13.6998 17.9489 13.7929 17.5579 13.8334 17.3882C13.92 17.053 13.85 16.8918 13.661 16.6584C13.3167 16.2315 13.1564 15.7266 13.1564 15.0696C13.1564 13.118 14.5431 11.0439 17.1132 11.0439C19.1524 11.0439 20.4192 12.2585 20.4192 14.2137C20.4192 15.4475 20.1656 16.5901 19.705 17.4312C19.3849 18.0157 18.8221 18.7123 17.958 18.7123C17.5843 18.7123 17.2487 18.5515 17.0369 18.2711C16.8368 18.006 16.7709 17.6635 16.8513 17.3066C16.9422 16.9034 17.0662 16.4827 17.1861 16.0761C17.4049 15.3334 17.6117 14.6319 17.6117 14.0723C17.6117 13.115 17.0502 12.4718 16.2145 12.4718C15.1524 12.4718 14.3203 13.6023 14.3203 15.0454C14.3203 15.7532 14.4998 16.2825 14.5811 16.4858C14.4473 17.0799 13.6521 20.6117 13.5013 21.2778C13.4141 21.6665 12.8887 24.7373 13.7583 24.9822C14.7353 25.2573 15.6086 22.2666 15.6975 21.9286C15.7696 21.6537 16.0216 20.6145 16.1761 19.9756C16.6478 20.4517 17.4072 20.7736 18.1461 20.7736C19.5392 20.7736 20.792 20.1166 21.6738 18.9239C22.529 17.767 23 16.1546 23 14.3838C23 12.9995 22.4327 11.6347 21.4437 10.6396Z" fill="#666666"/>
</svg>
