<svg width="34" height="34" viewBox="0 0 34 34" fill="none" xmlns="http://www.w3.org/2000/svg">
<rect x="0.5" y="0.5" width="33" height="33" stroke="#E5E5E5"/>
<path d="M25 12.539C24.4115 12.7999 23.7784 12.9764 23.1145 13.0552C23.7924 12.6491 24.3126 12.0067 24.5581 11.2399C23.9238 11.616 23.221 11.8889 22.4736 12.036C21.8748 11.3985 21.0217 11 20.077 11C18.2644 11 16.7944 12.4697 16.7944 14.2819C16.7944 14.5391 16.8235 14.7895 16.8798 15.0298C14.1517 14.893 11.7328 13.5865 10.1136 11.6004C9.83111 12.085 9.66905 12.6491 9.66905 13.2505C9.66905 14.3888 10.249 15.3938 11.1293 15.9822C10.5915 15.9653 10.085 15.8177 9.64261 15.5712C9.64237 15.5852 9.64237 15.5991 9.64237 15.6128C9.64237 17.203 10.7744 18.5293 12.2757 18.8306C12.0006 18.906 11.71 18.9459 11.4111 18.9459C11.1991 18.9459 10.9937 18.9256 10.7934 18.8874C11.2111 20.1909 12.4231 21.1398 13.8599 21.1665C12.7362 22.0469 11.321 22.5714 9.78264 22.5714C9.51825 22.5714 9.25631 22.556 9 22.5254C10.4519 23.4569 12.1778 24 14.0315 24C20.0694 24 23.3713 18.9992 23.3713 14.662C23.3713 14.5198 23.3681 14.3781 23.3618 14.2376C24.0036 13.775 24.5601 13.1971 25 12.539Z" fill="#666666"/>
</svg>
